STARTFONT 2.1
COMMENT
COMMENT Converted from OpenType font "Font 90 Icons.ttf" by "otf2bdf 3.0".
COMMENT
FONT -FreeType-Font 90 Icons-Medium-R-Normal--24-170-100-100-P-91-ISO10646-1
SIZE 17 100 100
FONTBOUNDINGBOX 26 25 0 -5
STARTPROPERTIES 19
FOUNDRY "FreeType"
FAMILY_NAME "Font 90 Icons"
WEIGHT_NAME "Medium"
SLANT "R"
SETWIDTH_NAME "Normal"
ADD_STYLE_NAME ""
PIXEL_SIZE 24
POINT_SIZE 170
RESOLUTION_X 100
RESOLUTION_Y 100
SPACING "P"
AVERAGE_WIDTH 91
CHARSET_REGISTRY "ISO10646"
CHARSET_ENCODING "1"
FONT_ASCENT 20
FONT_DESCENT 4
COPYRIGHT "Typeface © (el-harrak.blogspot.com). <darrati10@gmail.com>. All Rights Reserved"
_OTF_FONTFILE "Font 90 Icons.ttf"
_OTF_PSNAME "Font 90 Icons"
ENDPROPERTIES
CHARS 242
STARTCHAR 0000
ENCODING 0
SWIDTH 0 0
DWIDTH 0 0
BBX 0 0 0 0
BITMAP
ENDCHAR
STARTCHAR 001D
ENCODING 29
SWIDTH 0 0
DWIDTH 0 0
BBX 0 0 0 0
BITMAP
ENDCHAR
STARTCHAR 0020
ENCODING 32
SWIDTH 254 0
DWIDTH 6 0
BBX 0 0 0 0
BITMAP
ENDCHAR
STARTCHAR 0021
ENCODING 33
SWIDTH 974 0
DWIDTH 23 0
BBX 23 23 0 -4
BITMAP
00FF00
03FEC0
0FFF20
1FFF90
3FEF88
3FC784
7FC784
7FFF82
FFFF82
FFFF02
FFFE02
FFE002
FF0002
FE0002
7E0002
7C1002
7C3804
3C3804
1E0008
0E0010
070060
038180
007E00
ENDCHAR
STARTCHAR 0022
ENCODING 34
SWIDTH 974 0
DWIDTH 23 0
BBX 23 19 0 -2
BITMAP
00FE00
008300
008100
7FFFFC
FFFFFE
FFFFFE
FFFFFE
FFFFFE
FFFFFE
FFFFFE
FFFFFE
FFFFFE
FFFFFE
FFFFFE
FFFFFE
FFFFFE
FFFFFE
7FFFFE
3FFFF8
ENDCHAR
STARTCHAR 0023
ENCODING 35
SWIDTH 974 0
DWIDTH 23 0
BBX 22 25 1 -5
BITMAP
03E000
CFFC00
FFFFB0
FFFFF0
EFFFF0
6FFFF0
6FFFF8
6FFFF8
7FFFF8
77FFF8
77FFF8
37CFF8
3601F8
34003C
380000
380000
380000
180000
180000
1C0000
1C0000
1C0000
0C0000
0C0000
080000
ENDCHAR
STARTCHAR 0024
ENCODING 36
SWIDTH 974 0
DWIDTH 23 0
BBX 23 23 0 -4
BITMAP
1C0000
3E0000
7F0000
FF8000
FFC000
7FE000
3FD800
1FBC00
0F7E00
06F800
05F000
03F800
01CC00
008400
000200
000100
000080
000040
000020
000010
000008
000004
000002
ENDCHAR
STARTCHAR 0025
ENCODING 37
SWIDTH 974 0
DWIDTH 23 0
BBX 22 25 1 -5
BITMAP
007000
007800
007800
03FE00
07FF80
5FFFF8
FE71FC
FC30FC
FC21F8
7E23F0
7FFFB8
70FC38
707838
71FC38
7FB7F8
7E23F0
FC31F8
FC30FC
FE73F8
4FFFD0
07FF80
01FE00
007800
007000
003000
ENDCHAR
STARTCHAR 0026
ENCODING 38
SWIDTH 974 0
DWIDTH 23 0
BBX 23 23 0 -4
BITMAP
00FF00
0383C0
0E0060
18FE30
31FF98
23FFCC
67FFE4
4EFFE6
4F7EF6
DFBDF2
DFDBF2
DFE7F2
DFE7F2
DFFFF2
4FFFF6
4FFFE4
67FFCC
33FFC8
19FF18
0C3C30
0600E0
03FF80
007E00
ENDCHAR
STARTCHAR 0027
ENCODING 39
SWIDTH 974 0
DWIDTH 23 0
BBX 23 23 0 -4
BITMAP
03F800
0FFE00
1FFF00
3F1F80
7C4780
78C3C0
F0C3C0
F0C1C0
F7F9C0
F7F9C0
F0C3C0
70C3C0
78C780
3C0FC0
3FFFE0
1FFFF0
07FFF8
00E3FC
0001FC
0000FE
00007E
00003E
00001C
ENDCHAR
STARTCHAR 0028
ENCODING 40
SWIDTH 974 0
DWIDTH 23 0
BBX 23 23 0 -4
BITMAP
07F800
0FFE00
1FFF00
3E1F80
7C0780
7803C0
F003C0
F3F9C0
F7F9C0
F7F9C0
F003C0
7003C0
780780
3E0FC0
3FFFE0
1FFFF0
07FFF8
00E3FC
0001FE
0000FE
00007E
00003E
00001C
ENDCHAR
STARTCHAR 0029
ENCODING 41
SWIDTH 974 0
DWIDTH 23 0
BBX 23 17 0 -1
BITMAP
FFFFFE
E0000E
F0001E
D8003A
CC0072
C600E2
C301C2
C18382
C0C702
C1EF82
C33CC2
C60062
CC0032
D8001A
F0000E
E00006
FFFFFE
ENDCHAR
STARTCHAR 002A
ENCODING 42
SWIDTH 974 0
DWIDTH 23 0
BBX 20 25 2 -5
BITMAP
00E000
00E000
00E000
00E000
00E000
00E000
08E200
1EEF00
0FFE00
07FC00
7BFBE0
FDF7D0
FEEFB0
FF5F70
FFFEF0
FFFDF0
FFFBF0
FDF7F0
FBEBF0
F79DF0
EFFEF0
FFFF70
FFFFB0
FFFFD0
7FFFE0
ENDCHAR
STARTCHAR 002B
ENCODING 43
SWIDTH 974 0
DWIDTH 23 0
BBX 23 23 0 -4
BITMAP
FFFFFE
FFFFFE
FFFFFE
E0FF06
E1FF86
E0FF06
E07E06
ECFF3E
FFFFFE
FFFFFE
FFFFFE
FFFFFE
FFFFFE
FFFFFE
FDFF7E
E8FE2E
E0FE06
E1FF06
E1FF86
E0FE06
FFFFFE
FFFFFE
FFFFFE
ENDCHAR
STARTCHAR 002C
ENCODING 44
SWIDTH 974 0
DWIDTH 23 0
BBX 23 23 0 -4
BITMAP
0001F0
0007F8
000FFC
001FDE
003F8E
007FDE
00FFFE
01FFFE
03FFFC
07FFFC
0EFFF8
1B7FF0
39BFE0
FCDFC0
7E6F80
3F3700
1F9E00
0FCC00
07F800
03F000
01E000
00C000
004000
ENDCHAR
STARTCHAR 002D
ENCODING 45
SWIDTH 974 0
DWIDTH 23 0
BBX 23 23 0 -4
BITMAP
00FF00
03C3C0
0E00E0
180030
3C0118
36030C
630704
418F06
40FF06
C1FF02
C1FF02
C1FF02
C1FF02
C1FF02
400F06
600704
60034C
300168
180138
0C0030
0700E0
03FF80
007E00
ENDCHAR
STARTCHAR 002E
ENCODING 46
SWIDTH 974 0
DWIDTH 23 0
BBX 20 25 2 -5
BITMAP
7FFFE0
400020
400020
400020
400020
400020
400020
400020
400020
400020
400020
400020
7FFFE0
000000
7FFFE0
7FF8E0
7FFFE0
7FFFE0
3FFFE0
002000
002000
002000
03FC00
FFFFF0
03FC00
ENDCHAR
STARTCHAR 002F
ENCODING 47
SWIDTH 974 0
DWIDTH 23 0
BBX 23 24 0 -4
BITMAP
001000
307E18
10FE18
18FF30
C9FF32
4DFF36
4DFF26
6DFF66
6DFF64
6DFF64
6DFF64
6DFF64
6DFF64
6DFF26
4DFF36
C8FF36
D8FF32
187E10
103C18
303C08
003C00
003C00
003C00
003C00
ENDCHAR
STARTCHAR 0030
ENCODING 48
SWIDTH 974 0
DWIDTH 23 0
BBX 23 23 0 -4
BITMAP
00FF00
03FFC0
0FFFE0
1FFFF0
3CFF78
38FE3C
707C1C
707C0E
E0380E
E07C0E
E0460E
FFC7FE
FFC7FE
FFFFFE
7FC7FE
7F83FE
7F81FC
3F01FC
1F00F8
1F01F0
07FFE0
03FF80
007E00
ENDCHAR
STARTCHAR 0031
ENCODING 49
SWIDTH 974 0
DWIDTH 23 0
BBX 23 25 0 -5
BITMAP
007C00
007C00
007C00
037C80
077CE0
0F7CF0
1F7CF8
3E7C78
3C7C3C
787C1C
707C1E
707C1E
F07C0E
F07C0E
F0001E
70001E
70001C
78003C
3C003C
3E0078
1F01F0
0FFFF0
07FFC0
01FF80
007C00
ENDCHAR
STARTCHAR 0032
ENCODING 50
SWIDTH 974 0
DWIDTH 23 0
BBX 22 25 1 -5
BITMAP
007000
007800
007800
007800
007000
607038
F0707C
F830FC
FC21F8
3E23F0
0FF780
00F800
007800
01FC00
0FB7C0
7E23F0
FC31F8
F830FC
F07078
407010
007800
007800
007800
007000
003000
ENDCHAR
STARTCHAR 0033
ENCODING 51
SWIDTH 974 0
DWIDTH 23 0
BBX 23 22 0 -3
BITMAP
001000
001000
001800
003800
003C00
007C00
007E00
00FE00
BFFFF8
7FFFFE
3FFFF8
1FFFF0
0FFFE0
07FFC0
03FFC0
03FFC0
03FFC0
07FFC0
07FFC0
07C7C0
0701E0
040060
ENDCHAR
STARTCHAR 0034
ENCODING 52
SWIDTH 974 0
DWIDTH 23 0
BBX 23 17 0 -1
BITMAP
7FFFFC
BFFFFA
DFFFF6
EFFFEE
F7FFDE
FBFFBE
FDFF7E
FEFEFE
FF7CFE
FEBBFE
FDC7FE
FBFFFE
F7FFFE
EFFFFE
DFFFFE
BFFFFE
7FFFFC
ENDCHAR
STARTCHAR 0035
ENCODING 53
SWIDTH 974 0
DWIDTH 23 0
BBX 23 18 0 -2
BITMAP
0019C0
006DE0
0093E0
037DE0
06FE60
19FFB0
37FFC8
CFFFF6
0FFFF0
0FFFF0
0FC3F0
0FC3F0
0FC3F0
0FC3F0
0FC3F0
0FC3F0
0FC3F0
0FC3E0
ENDCHAR
STARTCHAR 0036
ENCODING 54
SWIDTH 974 0
DWIDTH 23 0
BBX 23 25 0 -5
BITMAP
0C0060
1E00E0
1E00F0
1E00E0
000000
7F83F8
FFC3F8
FFC7FC
FFC7FC
FFC7F4
FFCDF6
FFCFFE
FFCFFE
FFC3F8
3F07FC
3F07FC
3F07FC
3F01B0
3F01B0
3F01B0
3F01B0
3F01B0
3F01B0
3E01B0
0000A0
ENDCHAR
STARTCHAR 0037
ENCODING 55
SWIDTH 974 0
DWIDTH 23 0
BBX 23 17 0 -1
BITMAP
07F800
1E1E00
3E1F00
3E0F00
7E1F80
7F3F80
C3F0C0
C1E0C0
C1E0C0
C3F0C0
E7F9C0
7E1F80
7E0F80
3E0F00
1E1F86
0FFDFE
03F0F0
ENDCHAR
STARTCHAR 0038
ENCODING 56
SWIDTH 974 0
DWIDTH 23 0
BBX 18 25 3 -5
BITMAP
FFFF80
FFFFC0
C000C0
8000C0
8000C0
8000C0
C000C0
FFFFC0
FFFFC0
C638C0
C638C0
C638C0
FFFFC0
FFFFC0
C638C0
C638C0
C638C0
FFFFC0
FFFFC0
C638C0
C638C0
C638C0
FFFFC0
FFFFC0
FFFF80
ENDCHAR
STARTCHAR 0039
ENCODING 57
SWIDTH 974 0
DWIDTH 23 0
BBX 23 22 0 -3
BITMAP
400000
E00000
700000
31FFFE
19FFFE
19FFFC
0DFFFC
0DFFF8
0CFFF8
04FFF0
06FFF0
06FFE0
060000
060000
060000
03FFFC
000000
000000
078078
078078
07C078
078078
ENDCHAR
STARTCHAR 003A
ENCODING 58
SWIDTH 974 0
DWIDTH 23 0
BBX 23 23 0 -4
BITMAP
0003E0
000FF8
001FFC
001F8C
003F8E
003F8E
003FFE
003FFE
003FFE
007FFE
00DFFC
01EFF8
03E7F0
07F800
0FE400
1FE000
3FC000
7E0000
FE0000
FE0000
F80000
780000
380000
ENDCHAR
STARTCHAR 003B
ENCODING 59
SWIDTH 974 0
DWIDTH 23 0
BBX 23 23 0 -4
BITMAP
001800
001800
001800
001800
001800
001800
001800
001800
001800
001800
001800
FFFFFE
001800
001800
001800
001800
001800
001800
001800
001800
001800
001800
001800
ENDCHAR
STARTCHAR 003C
ENCODING 60
SWIDTH 974 0
DWIDTH 23 0
BBX 23 19 0 -2
BITMAP
001000
003800
003C00
007C00
006E00
00C600
01C300
018380
038180
0301C0
0600C0
0E0060
0C0070
1C0030
180038
380018
70000C
60000E
E00006
ENDCHAR
STARTCHAR 003D
ENCODING 61
SWIDTH 974 0
DWIDTH 23 0
BBX 23 23 0 -4
BITMAP
00FF00
0301C0
0C0060
180010
37FC08
218E0C
418704
418306
418302
818702
818E02
81F802
819C02
818C02
418E02
418704
618304
23C1C8
142018
180030
040060
038380
007E00
ENDCHAR
STARTCHAR 003E
ENCODING 62
SWIDTH 974 0
DWIDTH 23 0
BBX 23 23 0 -4
BITMAP
00FE00
0301C0
0C0060
180010
307E88
2181CC
4300C4
470046
C60042
8E0002
8E0002
8E0002
8E0002
860002
460002
470044
638084
21E308
103C18
180030
040060
038380
007E00
ENDCHAR
STARTCHAR 003F
ENCODING 63
SWIDTH 974 0
DWIDTH 23 0
BBX 23 23 0 -4
BITMAP
00FE00
03FFC0
0FEFE0
1E00F0
3C0078
38003C
70001C
70000E
60000E
E0000E
E00006
E00006
E00006
E0000E
60000E
70000C
70001C
38003C
1C0078
0F00F0
07FFE0
03FF80
007E00
ENDCHAR
STARTCHAR 0040
ENCODING 64
SWIDTH 974 0
DWIDTH 23 0
BBX 23 23 0 -4
BITMAP
001000
001800
003800
003C00
007C00
007E00
00FE00
00FF00
01FF00
01FF80
03FF80
03FFC0
07FFC0
07FFE0
0FFFE0
0FFFF0
1FFFF0
1FFFF8
3FFFF8
3FFFFC
7FFFFC
7FFFFE
FFFFFE
ENDCHAR
STARTCHAR 0041
ENCODING 65
SWIDTH 974 0
DWIDTH 23 0
BBX 23 22 0 -3
BITMAP
808000
C0C000
E0E000
F8F800
FCFC00
FEFE00
FFBF80
FFDFC0
FFEFE0
FFFBF8
FFFDFC
FFFEFE
FFF9FC
FFF7F0
FFEFE0
FF9FC0
FF7F00
FEFE00
F8FC00
F0F000
E0E000
80C000
ENDCHAR
STARTCHAR 0042
ENCODING 66
SWIDTH 974 0
DWIDTH 23 0
BBX 20 25 2 -5
BITMAP
8001F0
C001F0
F001F0
F801F0
FE01F0
FF81F0
FFC1F0
FFF1F0
FFF9F0
FFFFF0
FFFFF0
FFFFF0
FFFFF0
FFFFF0
FFFFF0
FFFFF0
FFF9F0
FFE1F0
FFC1F0
FF01F0
FE01F0
F801F0
E001F0
C001F0
8001F0
ENDCHAR
STARTCHAR 0043
ENCODING 67
SWIDTH 974 0
DWIDTH 23 0
BBX 18 25 3 -5
BITMAP
FE3FC0
FE3FC0
FE3FC0
FE3FC0
FE3FC0
FE3FC0
FE3FC0
FE3FC0
FE3FC0
FE3FC0
FE3FC0
FE3FC0
FE3FC0
FE3FC0
FE3FC0
FE3FC0
FE3FC0
FE3FC0
FE3FC0
FE3FC0
FE3FC0
FE3FC0
FE3FC0
FE3FC0
FE3FC0
ENDCHAR
STARTCHAR 0044
ENCODING 68
SWIDTH 974 0
DWIDTH 23 0
BBX 20 25 2 -5
BITMAP
800000
C00000
F00000
F80000
FE0000
FF0000
FFC000
FFF000
FFF800
FFFE00
FFFF80
FFFFC0
FFFFF0
FFFFC0
FFFF00
FFFE00
FFF800
FFE000
FFC000
FF0000
FC0000
F80000
E00000
C00000
800000
ENDCHAR
STARTCHAR 0045
ENCODING 69
SWIDTH 974 0
DWIDTH 23 0
BBX 23 23 0 -4
BITMAP
00FE00
03FFC0
0FFFE0
1FFFF0
3FFFF8
3FFFFC
7FE7FC
7F01FE
7F00FE
FE00FE
FE007E
FE007E
FE007E
FE00FE
7F00FE
7F81FC
7FFFFC
3FFFF8
1FFFF8
0FFFF0
07FFE0
03FF80
007E00
ENDCHAR
STARTCHAR 0046
ENCODING 70
SWIDTH 974 0
DWIDTH 23 0
BBX 23 23 0 -4
BITMAP
FFFFFE
FFFFFE
FFFFFE
FFFFFE
FFFFFE
FFFFFE
FFFFFE
FFFFFE
FFFFFE
FFFFFE
FFFFFE
FFFFFE
FFFFFE
FFFFFE
FFFFFE
FFFFFE
FFFFFE
FFFFFE
FFFFFE
FFFFFE
FFFFFE
FFFFFE
FFFFFE
ENDCHAR
STARTCHAR 0047
ENCODING 71
SWIDTH 974 0
DWIDTH 23 0
BBX 20 25 2 -5
BITMAP
F80010
F80070
F800F0
F803F0
F807F0
F81FF0
F87FF0
F8FFF0
FBFFF0
FFFFF0
FFFFF0
FFFFF0
FFFFF0
FFFFF0
FFFFF0
FFFFF0
FBFFF0
F8FFF0
F83FF0
F81FF0
F807F0
F801F0
F800F0
F80030
F80010
ENDCHAR
STARTCHAR 0048
ENCODING 72
SWIDTH 974 0
DWIDTH 23 0
BBX 23 22 0 -3
BITMAP
000202
000602
000E0E
001E1E
007E3E
00FEFE
01FDFE
07F3FE
0FEFFE
1FDFFE
7FBFFE
FF7FFE
3FBFFE
1FDFFE
0FF7FE
03FBFE
01FDFE
00FE7E
003E3E
001E1E
000E06
000202
ENDCHAR
STARTCHAR 0049
ENCODING 73
SWIDTH 974 0
DWIDTH 23 0
BBX 23 23 0 -4
BITMAP
C80000
CE0000
CE0000
CE4000
CE3000
CE3C00
CE3E00
CE3F80
CE3FE0
CE3FF0
CE3FFC
CE3FFE
CE3FF8
CE3FF0
CE3FC0
CE3F00
CE3E00
CE3800
CE3000
CE4000
CE0000
CE0000
C80000
ENDCHAR
STARTCHAR 004A
ENCODING 74
SWIDTH 974 0
DWIDTH 23 0
BBX 23 23 0 -4
BITMAP
001000
001800
003C00
007C00
00FE00
00FF00
01FF80
03FF80
07FFC0
07FFE0
0FFFF0
1FFFF0
3FFFF8
3FFFFC
7FFFFE
800000
000000
FFFFFE
FFFFFE
FFFFFE
FFFFFE
FFFFFE
FFFFFE
ENDCHAR
STARTCHAR 004B
ENCODING 75
SWIDTH 974 0
DWIDTH 23 0
BBX 23 23 0 -4
BITMAP
000038
000078
000070
0000F0
0000E0
0001E0
0001C0
3FFFC0
7FFF80
FFFFC0
0FFFE0
003FE0
001FF0
003FF0
0039F8
0078F8
00707C
07E03E
0FE01E
03E00E
007004
003004
002000
ENDCHAR
STARTCHAR 004C
ENCODING 76
SWIDTH 974 0
DWIDTH 23 0
BBX 20 25 2 -5
BITMAP
000100
000100
000180
07FF80
1FFF80
3FFFC0
703FC0
801FE0
001FE0
003FF0
007E00
000000
000000
000000
1FC000
FF8000
FF0000
7F0020
7FC1C0
3FFF80
3FFF00
1BFC00
180000
100000
100000
ENDCHAR
STARTCHAR 004D
ENCODING 77
SWIDTH 974 0
DWIDTH 23 0
BBX 23 19 0 -2
BITMAP
03FC00
0FFF00
1FFF80
3C03C0
7801E0
7000E0
7000E0
E007FE
E003FC
E001F8
E000F8
E00070
700060
780000
380000
3E0600
1FFE00
0FFE00
01FC00
ENDCHAR
STARTCHAR 004E
ENCODING 78
SWIDTH 974 0
DWIDTH 23 0
BBX 23 17 0 -1
BITMAP
00001C
00003E
00007E
0000FE
0001FC
3003F8
7807F0
FC0FE0
7E1FC0
3F3F80
1FFF00
0FFE00
07FC00
03F800
01F000
00E000
004000
ENDCHAR
STARTCHAR 004F
ENCODING 79
SWIDTH 974 0
DWIDTH 23 0
BBX 23 23 0 -4
BITMAP
7E0000
FFC000
FFF000
7FFC00
07FE00
007F80
001FC0
7E0FC0
FF87E0
FFE3F0
7FF1F8
03F8F8
00FC7C
007C7C
003E3C
3C1E3E
7E1F3E
7F0F1E
FF0F1E
FF0F1E
7F0F1E
7E0F1E
3C070C
ENDCHAR
STARTCHAR 0050
ENCODING 80
SWIDTH 974 0
DWIDTH 23 0
BBX 22 25 1 -5
BITMAP
00F800
03FE00
07FF80
0FFFC0
1F07C0
1E01E0
3C01E0
3C00E0
3800F0
3800F0
3800F0
FFFFFC
FFFFFC
FFFFFC
FFCFFC
FF8FFC
FF8FFC
FFCFFC
FFCFFC
FFCFFC
FFCFFC
FFFFFC
FFFFFC
FFFFFC
FFFFFC
ENDCHAR
STARTCHAR 0051
ENCODING 81
SWIDTH 974 0
DWIDTH 23 0
BBX 23 23 0 -4
BITMAP
07FFE0
07FFE0
07FFE0
07FFE0
07FFE0
07FFE0
07FFE0
07FFE0
001000
001000
001000
001000
07FFE0
040020
040020
FFC7FE
FFC7FE
FFC7FE
FFC7FE
FFC7FE
FFC7FE
FFC7FE
FFC7FE
ENDCHAR
STARTCHAR 0052
ENCODING 82
SWIDTH 974 0
DWIDTH 23 0
BBX 23 14 0 1
BITMAP
004000
006000
007000
1FFDF0
3FFDF8
7FF9FC
70701E
E0600E
E0000E
E0000E
70000E
7FFFFC
3FFFFC
1FFFF0
ENDCHAR
STARTCHAR 0053
ENCODING 83
SWIDTH 974 0
DWIDTH 23 0
BBX 23 19 0 -2
BITMAP
000180
0003C0
0007E0
FFCFF0
FFDFF8
FFBFFC
FF7FFE
F073CE
EF9FFA
EFFFFE
EFFFFE
FFFFFE
DFFFFC
DFFFFC
DFFFFC
BFFC38
BFFFF8
3FFFF8
3FFFF0
ENDCHAR
STARTCHAR 0054
ENCODING 84
SWIDTH 974 0
DWIDTH 23 0
BBX 23 23 0 -4
BITMAP
00FE00
03FFC0
0FFFE0
1FC7F0
3E00F8
3E007C
7F003C
7B801E
71C01E
F0E00E
F0700E
F0380E
F01C0E
F00E1E
70071E
78039C
7801FC
3C00F8
1F01F8
0FFFF0
07FFE0
03FF80
007E00
ENDCHAR
STARTCHAR 0055
ENCODING 85
SWIDTH 974 0
DWIDTH 23 0
BBX 23 21 0 -3
BITMAP
001800
003800
003800
007800
00F800
01F800
FFF800
FFF800
FFF800
FFF9FE
FFF9FE
FFF9FE
FFF800
FFF800
03F800
01F800
00F800
007800
003800
001800
001000
ENDCHAR
STARTCHAR 0056
ENCODING 86
SWIDTH 974 0
DWIDTH 23 0
BBX 23 21 0 -3
BITMAP
000800
001800
003800
007800
00F800
01F800
FFF830
FFF830
FFF830
FFF9FE
FFF9FE
FFF9FE
FFF830
FFF830
7FF830
01F800
00F800
007800
003800
001800
000800
ENDCHAR
STARTCHAR 0057
ENCODING 87
SWIDTH 974 0
DWIDTH 23 0
BBX 23 23 0 -4
BITMAP
0E00F0
3F83F8
7FC7FC
7FEFFE
FFEFFE
FFFFFE
FFFFFE
7FFFFE
7FFFFE
3FFFFC
1FFFF8
0FFFF0
07FFE0
03FFC0
01FF80
00FF00
007E00
007E00
003C00
001800
001000
001000
001000
ENDCHAR
STARTCHAR 0058
ENCODING 88
SWIDTH 974 0
DWIDTH 23 0
BBX 19 25 2 -5
BITMAP
060000
0E0000
0E0000
0E0000
0E0000
0E0000
0E0000
0E6000
0EE600
0EE660
4EE660
EFFFE0
EFFFE0
EFFFE0
EFFFE0
EFFFE0
FFFFE0
FFFFE0
7FFFE0
7FFFE0
3FFFE0
1FFFE0
1FFFE0
0FFFE0
07FFC0
ENDCHAR
STARTCHAR 0059
ENCODING 89
SWIDTH 974 0
DWIDTH 23 0
BBX 17 25 3 -5
BITMAP
00C000
00C000
0CC800
0CDC00
0CDC00
0CDD80
0CDD80
0CDD80
0CDD80
0CDD80
0CDD80
0CDD80
CFDF80
CFFF80
CFFF80
CFFF80
FFFF80
FFFF80
FFFF80
7FFF80
3FFF80
3FFF80
1FFF80
1FFF80
07FF00
ENDCHAR
STARTCHAR 005A
ENCODING 90
SWIDTH 974 0
DWIDTH 23 0
BBX 23 23 0 -4
BITMAP
000818
000C18
001C1C
003C8C
007CCC
00FCCE
01FC6E
FFFC66
FFFC66
FFFC66
FFFC66
FFFC66
FFFC66
FFFC66
FFFC66
FFFC66
01FCCE
00FCCC
007CCC
003C8C
001C18
001C18
000C10
ENDCHAR
STARTCHAR 005B
ENCODING 91
SWIDTH 974 0
DWIDTH 23 0
BBX 23 23 0 -4
BITMAP
800000
E00000
F80000
FE0000
FF8000
FFE000
FFF800
FFFE00
FFFF80
FFFFE0
FFFFF8
FFFFFE
FFFFF8
FFFFE0
FFFF80
FFFE00
FFF800
FFE000
FF8000
FE0000
F80000
E00000
800000
ENDCHAR
STARTCHAR 005C
ENCODING 92
SWIDTH 974 0
DWIDTH 23 0
BBX 23 23 0 -4
BITMAP
FFFFFE
7FFFFC
7FFFFC
3FFFF8
3FFFF8
1FFFF0
1FFFF0
0FFFE0
0FFFE0
07FFC0
07FFC0
03FF80
01FF80
01FF00
00FF00
00FE00
007E00
007C00
003C00
003800
001800
001000
001000
ENDCHAR
STARTCHAR 005D
ENCODING 93
SWIDTH 974 0
DWIDTH 23 0
BBX 23 23 0 -4
BITMAP
000002
00000E
00003E
0000FE
0003FE
000FFE
003FFE
00FFFE
03FFFE
0FFFFE
3FFFFE
FFFFFE
3FFFFE
0FFFFE
03FFFE
00FFFE
003FFE
000FFE
0003FE
0000FE
00003E
00000E
000002
ENDCHAR
STARTCHAR 005E
ENCODING 94
SWIDTH 974 0
DWIDTH 23 0
BBX 23 9 0 3
BITMAP
080010
100010
300008
7FFFFC
FFFFFE
60000C
300008
100010
080010
ENDCHAR
STARTCHAR 005F
ENCODING 95
SWIDTH 974 0
DWIDTH 23 0
BBX 9 25 7 -5
BITMAP
0800
1C00
3E00
6F00
8C80
0C00
0C00
0C00
0C00
0C00
0C00
0C00
0C00
0C00
0C00
0C00
0C00
0C00
0C00
0C00
8C80
7F00
3E00
1C00
0800
ENDCHAR
STARTCHAR 0060
ENCODING 96
SWIDTH 974 0
DWIDTH 23 0
BBX 9 25 7 -5
BITMAP
0C00
0C00
0C00
0C00
0C00
0C00
0C00
0C00
0C00
0C00
0C00
0C00
0C00
0C00
0C00
0C00
0C00
0C00
0C00
0C00
8C80
7F00
1E00
0C00
0800
ENDCHAR
STARTCHAR 0061
ENCODING 97
SWIDTH 974 0
DWIDTH 23 0
BBX 23 13 0 1
BITMAP
000010
01F810
07FF38
0FFFB8
1FFFF8
1FFFF8
3C3FFC
7007FC
4007FC
8007FC
000FFE
001FFE
003FFE
ENDCHAR
STARTCHAR 0062
ENCODING 98
SWIDTH 974 0
DWIDTH 23 0
BBX 23 13 0 1
BITMAP
100000
181F00
18FFC0
1FFFE0
1FFFF0
3FFFF8
3FF878
3FE00C
3FC004
7FE002
7FF000
7FF800
FFFC00
ENDCHAR
STARTCHAR 0063
ENCODING 99
SWIDTH 974 0
DWIDTH 23 0
BBX 23 25 0 -5
BITMAP
003C00
007E00
007E00
007E00
007E00
007E00
007E00
007E00
007E00
007E00
007E00
407E04
F87E3E
FE7EFE
7FFFFE
7FFFFC
3FFFF8
1FFFF0
0FFFE0
07FFC0
03FF80
01FF00
00FE00
007C00
003800
ENDCHAR
STARTCHAR 0064
ENCODING 100
SWIDTH 974 0
DWIDTH 23 0
BBX 23 23 0 -4
BITMAP
000038
00007C
3000FE
7801FE
F803FE
FC07FC
FC0FF8
FC1FF0
FE3FE0
FE7FC0
FEFF80
FFFF00
FFFE00
FFFC00
FFF800
FFF000
FFFC00
FFFF80
FFFFF0
FFFFF8
FFFFF8
7FFFF8
3FFFF0
ENDCHAR
STARTCHAR 0065
ENCODING 101
SWIDTH 974 0
DWIDTH 23 0
BBX 23 23 0 -4
BITMAP
1C0000
3E0000
7F001C
FF801E
7FC03E
7FE03E
3FF07E
1FF87E
0FFC7E
07FEFE
03FFFE
01FFFE
00FFFE
007FFE
003FFE
001FFE
007FFE
03FFFE
0FFFFE
1FFFFE
3FFFFE
1FFFFE
0FFFFC
ENDCHAR
STARTCHAR 0066
ENCODING 102
SWIDTH 974 0
DWIDTH 23 0
BBX 23 22 0 -3
BITMAP
003000
007800
00F800
01F000
03F000
07E000
0FE000
1FC000
3FC000
7FFFFE
FFFFFE
FFFFFE
7FFFFE
3FFFFE
1FC000
0FE000
07E000
03F000
01F000
00F800
007800
003000
ENDCHAR
STARTCHAR 0067
ENCODING 103
SWIDTH 974 0
DWIDTH 23 0
BBX 23 21 0 -3
BITMAP
001C00
001E00
001F00
001F80
000FC0
000FE0
0007F0
0007F8
7FFFFC
FFFFFE
FFFFFE
FFFFFE
FFFFFC
0007F8
0007F0
000FE0
000FC0
001F80
001F00
001E00
001C00
ENDCHAR
STARTCHAR 0068
ENCODING 104
SWIDTH 974 0
DWIDTH 23 0
BBX 23 25 0 -5
BITMAP
003800
007C00
00FE00
01FF00
03FF80
07FFC0
0FFFE0
1FFFF0
3FFFF8
7FFFFC
7FFFFE
FE7EFE
F87E3E
407E04
007E00
007E00
007E00
007E00
007E00
007E00
007E00
007E00
007E00
007E00
003C00
ENDCHAR
STARTCHAR 0069
ENCODING 105
SWIDTH 974 0
DWIDTH 23 0
BBX 23 23 0 -4
BITMAP
7FFFF0
FFFFF8
FFFFF8
FFFFF8
FFFFE0
FFFF80
FFFC00
FFF000
FFF800
FFFC00
FFFE00
FFFF00
FEFF80
FE7FC0
FE3FE0
FC1FF0
FC0FF8
FC07FC
F803FE
7801FE
3000FE
00007C
000038
ENDCHAR
STARTCHAR 006A
ENCODING 106
SWIDTH 974 0
DWIDTH 23 0
BBX 23 23 0 -4
BITMAP
1FFFFC
3FFFFE
3FFFFE
1FFFFE
0FFFFE
01FFFE
003FFE
001FFE
003FFE
007FFE
00FFFE
01FFFE
03FEFE
07FC7E
0FF87E
1FF07E
3FE03E
7FC03E
FF803E
FF001E
7E0008
3C0000
180000
ENDCHAR
STARTCHAR 006B
ENCODING 107
SWIDTH 974 0
DWIDTH 23 0
BBX 23 20 0 -2
BITMAP
000400
000400
000600
000700
000780
007FC0
07FFE0
0FFFF0
1FFFF8
3FFFFC
7FFFFE
7F0FFC
7C0FF0
F01FC0
E01F80
E01E00
C01800
801000
800000
800000
ENDCHAR
STARTCHAR 006C
ENCODING 108
SWIDTH 1101 0
DWIDTH 26 0
BBX 26 22 0 -3
BITMAP
00100000
00200000
00600000
00E00000
01E00000
03E00000
07FFC000
0FFFF800
1FFFFC00
3FFFFE00
7FFFFF00
FFFFFF00
3FFCFF80
1FF81F80
07F80780
01F80380
00F801C0
003C01C0
000C00C0
000400C0
00000040
00000040
ENDCHAR
STARTCHAR 006D
ENCODING 109
SWIDTH 974 0
DWIDTH 23 0
BBX 21 25 1 -5
BITMAP
03FE00
03FE00
03FE00
03FE00
03FE00
03FE00
03FE00
03FE00
03FE00
03FE00
03FE00
03FE00
03FE00
83FE08
7FFFF0
3FFFE0
1FFFC0
0FFF80
07FF00
03FF00
01FE00
00FC00
007800
003000
002000
ENDCHAR
STARTCHAR 006E
ENCODING 110
SWIDTH 974 0
DWIDTH 23 0
BBX 23 19 0 -2
BITMAP
002000
006000
00E000
03E000
07E000
0FFFFE
1FFFFE
3FFFFE
7FFFFE
FFFFFE
7FFFFE
3FFFFE
0FFFFE
07E000
03E000
01E000
00E000
006000
002000
ENDCHAR
STARTCHAR 006F
ENCODING 111
SWIDTH 974 0
DWIDTH 23 0
BBX 23 19 0 -2
BITMAP
000400
000600
000700
000780
0007C0
FFFFE0
FFFFF0
FFFFF8
FFFFFC
FFFFFE
FFFFFC
FFFFF8
FFFFF0
0007E0
0007C0
000780
000600
000400
000400
ENDCHAR
STARTCHAR 0070
ENCODING 112
SWIDTH 974 0
DWIDTH 23 0
BBX 20 25 2 -5
BITMAP
004000
00E000
00F000
01F800
03FC00
07FE00
0FFF00
1FFF80
3FFF80
7FFFC0
FFFFF0
07FC00
07FC00
07FC00
07FC00
07FC00
07FC00
07FC00
07FC00
07FC00
07FC00
07FC00
07FC00
07FC00
07FC00
ENDCHAR
STARTCHAR 0071
ENCODING 113
SWIDTH 974 0
DWIDTH 23 0
BBX 21 25 1 -5
BITMAP
000200
000200
000700
000780
000F80
000FC0
001FC0
F03FE0
F03FE0
F07FF0
F07FF8
F0FFF8
F00780
F00780
F00780
F00780
F00780
F00F00
F80F00
781F00
7E3E00
3FFE00
1FFC00
0FF800
01C000
ENDCHAR
STARTCHAR 0072
ENCODING 114
SWIDTH 974 0
DWIDTH 23 0
BBX 23 19 0 -2
BITMAP
006000
00E000
03E000
0FE000
3FFFC0
FFFFF0
7FFFF8
1FFFFC
07E03E
01E01E
00E01E
00200E
00001E
00001E
00003E
0000FC
03FFF8
03FFF0
03FFE0
ENDCHAR
STARTCHAR 0073
ENCODING 115
SWIDTH 974 0
DWIDTH 23 0
BBX 23 19 0 -2
BITMAP
003000
03FF80
0FFFE0
3FFFF8
3FFFFC
7FFFFE
FFFFFE
FFFFFE
FFFFFE
FFFFFE
7FFFFE
7FFFFC
3FFFF8
1FFFF0
07FFC0
00FE00
00E000
01C000
020000
ENDCHAR
STARTCHAR 0074
ENCODING 116
SWIDTH 974 0
DWIDTH 23 0
BBX 23 19 0 -2
BITMAP
FFFFFE
FFFFFE
FFFFFE
FFFFFE
FFFFFE
FFFFFE
FFFFFE
FFFFFE
FFFFFE
FFFFFE
FFFFFE
FFFFFE
FFFFFE
FFFFFE
7FFFFC
003000
006000
004000
008000
ENDCHAR
STARTCHAR 0075
ENCODING 117
SWIDTH 974 0
DWIDTH 23 0
BBX 23 18 0 -1
BITMAP
003800
03FFC0
0FFFF0
3FFFF8
7FFFFC
7FFFFE
FFFFFE
FFFFFE
FFFFFE
FFFFFE
7FFFFE
7FFFFC
3FFFF8
1FFFF0
07FFC0
007E00
000E00
000380
ENDCHAR
STARTCHAR 0076
ENCODING 118
SWIDTH 974 0
DWIDTH 23 0
BBX 23 19 0 -2
BITMAP
FFFFFE
FFFFFE
FFFFFE
FFFFFE
FFFFFE
FFFFFE
FFFFFE
FFFFFE
FFFFFE
FFFFFE
FFFFFE
FFFFFE
FFFFFE
FFFFFE
7FFFFC
001C00
000C00
000600
000200
ENDCHAR
STARTCHAR 0077
ENCODING 119
SWIDTH 974 0
DWIDTH 23 0
BBX 23 23 0 -4
BITMAP
003800
003C00
007C00
1EFEF0
1FFFF8
1FFFF0
0FFFF0
0FFFE0
1F83E0
7F81FC
FF01FE
FF01FE
FF01FE
3F81FC
0FC3E0
0FFFE0
1FFFF0
1FFFF8
1FFCF0
1E7C70
007C00
003C00
003800
ENDCHAR
STARTCHAR 0078
ENCODING 120
SWIDTH 974 0
DWIDTH 23 0
BBX 23 19 0 -2
BITMAP
360000
3E8000
7F8000
F30400
238E30
738F70
7F4FF0
1FFFF0
1AFFFE
007C7E
00783E
00F838
00F838
00FC7C
001FFE
001FEC
001FC0
001CE0
0000C0
ENDCHAR
STARTCHAR 0079
ENCODING 121
SWIDTH 974 0
DWIDTH 23 0
BBX 23 21 0 -3
BITMAP
01F000
03FCFC
07C2F0
0F81E0
1F81FE
3FC1FC
F9E3F8
78F7F0
303FD0
101F00
003F00
007F80
00FFC0
03F3E0
07E1F0
0FC0F8
1F807C
3F003E
3C001E
38000C
000008
ENDCHAR
STARTCHAR 007A
ENCODING 122
SWIDTH 974 0
DWIDTH 23 0
BBX 23 23 0 -4
BITMAP
000400
000400
000C00
001C00
001800
003800
003800
003800
003000
00701E
3E71F8
7F7FF0
E3FFC0
E3FC00
FFE000
7EF000
39F800
019800
039800
039800
03F800
01F000
00E000
ENDCHAR
STARTCHAR 007B
ENCODING 123
SWIDTH 974 0
DWIDTH 23 0
BBX 23 22 0 -3
BITMAP
0001F0
0000E0
0000F0
0000B8
000018
00000C
00000C
000006
000006
000006
000006
C00006
C00006
E00006
60000E
70000C
30001C
380038
1C0070
0F01E0
03FFC0
00FF00
ENDCHAR
STARTCHAR 007C
ENCODING 124
SWIDTH 974 0
DWIDTH 23 0
BBX 23 22 0 -3
BITMAP
0F0000
070000
0E0000
1E0000
3A0000
700000
600000
600000
C00000
C00000
C00000
C00006
C00006
E00006
60000E
60000C
30001C
380038
1C0070
0F01E0
07FFC0
01FF00
ENDCHAR
STARTCHAR 007D
ENCODING 125
SWIDTH 508 0
DWIDTH 12 0
BBX 0 0 0 0
BITMAP
ENDCHAR
STARTCHAR 007E
ENCODING 126
SWIDTH 508 0
DWIDTH 12 0
BBX 0 0 0 0
BITMAP
ENDCHAR
STARTCHAR 00A0
ENCODING 160
SWIDTH 254 0
DWIDTH 6 0
BBX 0 0 0 0
BITMAP
ENDCHAR
STARTCHAR 00A1
ENCODING 161
SWIDTH 338 0
DWIDTH 8 0
BBX 0 0 0 0
BITMAP
ENDCHAR
STARTCHAR 00A2
ENCODING 162
SWIDTH 550 0
DWIDTH 13 0
BBX 0 0 0 0
BITMAP
ENDCHAR
STARTCHAR 00A3
ENCODING 163
SWIDTH 508 0
DWIDTH 12 0
BBX 0 0 0 0
BITMAP
ENDCHAR
STARTCHAR 00A4
ENCODING 164
SWIDTH 508 0
DWIDTH 12 0
BBX 0 0 0 0
BITMAP
ENDCHAR
STARTCHAR 00A5
ENCODING 165
SWIDTH 635 0
DWIDTH 15 0
BBX 0 0 0 0
BITMAP
ENDCHAR
STARTCHAR 00A6
ENCODING 166
SWIDTH 508 0
DWIDTH 12 0
BBX 0 0 0 0
BITMAP
ENDCHAR
STARTCHAR 00A7
ENCODING 167
SWIDTH 508 0
DWIDTH 12 0
BBX 0 0 0 0
BITMAP
ENDCHAR
STARTCHAR 00A8
ENCODING 168
SWIDTH 508 0
DWIDTH 12 0
BBX 0 0 0 0
BITMAP
ENDCHAR
STARTCHAR 00A9
ENCODING 169
SWIDTH 847 0
DWIDTH 20 0
BBX 0 0 0 0
BITMAP
ENDCHAR
STARTCHAR 00AA
ENCODING 170
SWIDTH 338 0
DWIDTH 8 0
BBX 0 0 0 0
BITMAP
ENDCHAR
STARTCHAR 00AB
ENCODING 171
SWIDTH 465 0
DWIDTH 11 0
BBX 0 0 0 0
BITMAP
ENDCHAR
STARTCHAR 00AC
ENCODING 172
SWIDTH 508 0
DWIDTH 12 0
BBX 0 0 0 0
BITMAP
ENDCHAR
STARTCHAR 00AD
ENCODING 173
SWIDTH 974 0
DWIDTH 23 0
BBX 23 23 0 -4
BITMAP
00FF00
03C3C0
0E00E0
180030
3C0118
36030C
630704
418F06
40FF06
C1FF02
C1FF02
C1FF02
C1FF02
C1FF02
400F06
600704
60034C
300168
180138
0C0030
0700E0
03FF80
007E00
ENDCHAR
STARTCHAR 00AE
ENCODING 174
SWIDTH 847 0
DWIDTH 20 0
BBX 0 0 0 0
BITMAP
ENDCHAR
STARTCHAR 00AF
ENCODING 175
SWIDTH 338 0
DWIDTH 8 0
BBX 0 0 0 0
BITMAP
ENDCHAR
STARTCHAR 00B0
ENCODING 176
SWIDTH 338 0
DWIDTH 8 0
BBX 0 0 0 0
BITMAP
ENDCHAR
STARTCHAR 00B1
ENCODING 177
SWIDTH 508 0
DWIDTH 12 0
BBX 0 0 0 0
BITMAP
ENDCHAR
STARTCHAR 00B2
ENCODING 178
SWIDTH 508 0
DWIDTH 12 0
BBX 0 0 0 0
BITMAP
ENDCHAR
STARTCHAR 00B3
ENCODING 179
SWIDTH 508 0
DWIDTH 12 0
BBX 0 0 0 0
BITMAP
ENDCHAR
STARTCHAR 00B4
ENCODING 180
SWIDTH 508 0
DWIDTH 12 0
BBX 0 0 0 0
BITMAP
ENDCHAR
STARTCHAR 00B5
ENCODING 181
SWIDTH 592 0
DWIDTH 14 0
BBX 0 0 0 0
BITMAP
ENDCHAR
STARTCHAR 00B6
ENCODING 182
SWIDTH 508 0
DWIDTH 12 0
BBX 0 0 0 0
BITMAP
ENDCHAR
STARTCHAR 00B7
ENCODING 183
SWIDTH 254 0
DWIDTH 6 0
BBX 0 0 0 0
BITMAP
ENDCHAR
STARTCHAR 00B8
ENCODING 184
SWIDTH 508 0
DWIDTH 12 0
BBX 0 0 0 0
BITMAP
ENDCHAR
STARTCHAR 00B9
ENCODING 185
SWIDTH 508 0
DWIDTH 12 0
BBX 0 0 0 0
BITMAP
ENDCHAR
STARTCHAR 00BA
ENCODING 186
SWIDTH 338 0
DWIDTH 8 0
BBX 0 0 0 0
BITMAP
ENDCHAR
STARTCHAR 00BB
ENCODING 187
SWIDTH 465 0
DWIDTH 11 0
BBX 0 0 0 0
BITMAP
ENDCHAR
STARTCHAR 00BC
ENCODING 188
SWIDTH 847 0
DWIDTH 20 0
BBX 0 0 0 0
BITMAP
ENDCHAR
STARTCHAR 00BD
ENCODING 189
SWIDTH 974 0
DWIDTH 23 0
BBX 0 0 0 0
BITMAP
ENDCHAR
STARTCHAR 00BE
ENCODING 190
SWIDTH 847 0
DWIDTH 20 0
BBX 0 0 0 0
BITMAP
ENDCHAR
STARTCHAR 00BF
ENCODING 191
SWIDTH 381 0
DWIDTH 9 0
BBX 0 0 0 0
BITMAP
ENDCHAR
STARTCHAR 00C0
ENCODING 192
SWIDTH 762 0
DWIDTH 18 0
BBX 0 0 0 0
BITMAP
ENDCHAR
STARTCHAR 00C1
ENCODING 193
SWIDTH 762 0
DWIDTH 18 0
BBX 0 0 0 0
BITMAP
ENDCHAR
STARTCHAR 00C2
ENCODING 194
SWIDTH 762 0
DWIDTH 18 0
BBX 0 0 0 0
BITMAP
ENDCHAR
STARTCHAR 00C3
ENCODING 195
SWIDTH 762 0
DWIDTH 18 0
BBX 0 0 0 0
BITMAP
ENDCHAR
STARTCHAR 00C4
ENCODING 196
SWIDTH 762 0
DWIDTH 18 0
BBX 0 0 0 0
BITMAP
ENDCHAR
STARTCHAR 00C5
ENCODING 197
SWIDTH 762 0
DWIDTH 18 0
BBX 0 0 0 0
BITMAP
ENDCHAR
STARTCHAR 00C6
ENCODING 198
SWIDTH 1058 0
DWIDTH 25 0
BBX 0 0 0 0
BITMAP
ENDCHAR
STARTCHAR 00C7
ENCODING 199
SWIDTH 677 0
DWIDTH 16 0
BBX 0 0 0 0
BITMAP
ENDCHAR
STARTCHAR 00C8
ENCODING 200
SWIDTH 550 0
DWIDTH 13 0
BBX 0 0 0 0
BITMAP
ENDCHAR
STARTCHAR 00C9
ENCODING 201
SWIDTH 550 0
DWIDTH 13 0
BBX 0 0 0 0
BITMAP
ENDCHAR
STARTCHAR 00CA
ENCODING 202
SWIDTH 550 0
DWIDTH 13 0
BBX 0 0 0 0
BITMAP
ENDCHAR
STARTCHAR 00CB
ENCODING 203
SWIDTH 550 0
DWIDTH 13 0
BBX 0 0 0 0
BITMAP
ENDCHAR
STARTCHAR 00CC
ENCODING 204
SWIDTH 338 0
DWIDTH 8 0
BBX 0 0 0 0
BITMAP
ENDCHAR
STARTCHAR 00CD
ENCODING 205
SWIDTH 338 0
DWIDTH 8 0
BBX 0 0 0 0
BITMAP
ENDCHAR
STARTCHAR 00CE
ENCODING 206
SWIDTH 338 0
DWIDTH 8 0
BBX 0 0 0 0
BITMAP
ENDCHAR
STARTCHAR 00CF
ENCODING 207
SWIDTH 338 0
DWIDTH 8 0
BBX 0 0 0 0
BITMAP
ENDCHAR
STARTCHAR 00D0
ENCODING 208
SWIDTH 762 0
DWIDTH 18 0
BBX 0 0 0 0
BITMAP
ENDCHAR
STARTCHAR 00D1
ENCODING 209
SWIDTH 762 0
DWIDTH 18 0
BBX 0 0 0 0
BITMAP
ENDCHAR
STARTCHAR 00D2
ENCODING 210
SWIDTH 804 0
DWIDTH 19 0
BBX 0 0 0 0
BITMAP
ENDCHAR
STARTCHAR 00D3
ENCODING 211
SWIDTH 804 0
DWIDTH 19 0
BBX 0 0 0 0
BITMAP
ENDCHAR
STARTCHAR 00D4
ENCODING 212
SWIDTH 804 0
DWIDTH 19 0
BBX 0 0 0 0
BITMAP
ENDCHAR
STARTCHAR 00D5
ENCODING 213
SWIDTH 804 0
DWIDTH 19 0
BBX 0 0 0 0
BITMAP
ENDCHAR
STARTCHAR 00D6
ENCODING 214
SWIDTH 804 0
DWIDTH 19 0
BBX 0 0 0 0
BITMAP
ENDCHAR
STARTCHAR 00D7
ENCODING 215
SWIDTH 508 0
DWIDTH 12 0
BBX 0 0 0 0
BITMAP
ENDCHAR
STARTCHAR 00D8
ENCODING 216
SWIDTH 804 0
DWIDTH 19 0
BBX 0 0 0 0
BITMAP
ENDCHAR
STARTCHAR 00D9
ENCODING 217
SWIDTH 762 0
DWIDTH 18 0
BBX 0 0 0 0
BITMAP
ENDCHAR
STARTCHAR 00DA
ENCODING 218
SWIDTH 762 0
DWIDTH 18 0
BBX 0 0 0 0
BITMAP
ENDCHAR
STARTCHAR 00DB
ENCODING 219
SWIDTH 762 0
DWIDTH 18 0
BBX 0 0 0 0
BITMAP
ENDCHAR
STARTCHAR 00DC
ENCODING 220
SWIDTH 762 0
DWIDTH 18 0
BBX 0 0 0 0
BITMAP
ENDCHAR
STARTCHAR 00DD
ENCODING 221
SWIDTH 592 0
DWIDTH 14 0
BBX 0 0 0 0
BITMAP
ENDCHAR
STARTCHAR 00DE
ENCODING 222
SWIDTH 550 0
DWIDTH 13 0
BBX 0 0 0 0
BITMAP
ENDCHAR
STARTCHAR 00DF
ENCODING 223
SWIDTH 635 0
DWIDTH 15 0
BBX 0 0 0 0
BITMAP
ENDCHAR
STARTCHAR 00E0
ENCODING 224
SWIDTH 465 0
DWIDTH 11 0
BBX 0 0 0 0
BITMAP
ENDCHAR
STARTCHAR 00E1
ENCODING 225
SWIDTH 465 0
DWIDTH 11 0
BBX 0 0 0 0
BITMAP
ENDCHAR
STARTCHAR 00E2
ENCODING 226
SWIDTH 465 0
DWIDTH 11 0
BBX 0 0 0 0
BITMAP
ENDCHAR
STARTCHAR 00E3
ENCODING 227
SWIDTH 465 0
DWIDTH 11 0
BBX 0 0 0 0
BITMAP
ENDCHAR
STARTCHAR 00E4
ENCODING 228
SWIDTH 465 0
DWIDTH 11 0
BBX 0 0 0 0
BITMAP
ENDCHAR
STARTCHAR 00E5
ENCODING 229
SWIDTH 465 0
DWIDTH 11 0
BBX 0 0 0 0
BITMAP
ENDCHAR
STARTCHAR 00E6
ENCODING 230
SWIDTH 720 0
DWIDTH 17 0
BBX 0 0 0 0
BITMAP
ENDCHAR
STARTCHAR 00E7
ENCODING 231
SWIDTH 465 0
DWIDTH 11 0
BBX 0 0 0 0
BITMAP
ENDCHAR
STARTCHAR 00E8
ENCODING 232
SWIDTH 465 0
DWIDTH 11 0
BBX 0 0 0 0
BITMAP
ENDCHAR
STARTCHAR 00E9
ENCODING 233
SWIDTH 465 0
DWIDTH 11 0
BBX 0 0 0 0
BITMAP
ENDCHAR
STARTCHAR 00EA
ENCODING 234
SWIDTH 465 0
DWIDTH 11 0
BBX 0 0 0 0
BITMAP
ENDCHAR
STARTCHAR 00EB
ENCODING 235
SWIDTH 465 0
DWIDTH 11 0
BBX 0 0 0 0
BITMAP
ENDCHAR
STARTCHAR 00EC
ENCODING 236
SWIDTH 254 0
DWIDTH 6 0
BBX 0 0 0 0
BITMAP
ENDCHAR
STARTCHAR 00ED
ENCODING 237
SWIDTH 254 0
DWIDTH 6 0
BBX 0 0 0 0
BITMAP
ENDCHAR
STARTCHAR 00EE
ENCODING 238
SWIDTH 254 0
DWIDTH 6 0
BBX 0 0 0 0
BITMAP
ENDCHAR
STARTCHAR 00EF
ENCODING 239
SWIDTH 254 0
DWIDTH 6 0
BBX 0 0 0 0
BITMAP
ENDCHAR
STARTCHAR 00F0
ENCODING 240
SWIDTH 550 0
DWIDTH 13 0
BBX 0 0 0 0
BITMAP
ENDCHAR
STARTCHAR 00F1
ENCODING 241
SWIDTH 550 0
DWIDTH 13 0
BBX 0 0 0 0
BITMAP
ENDCHAR
STARTCHAR 00F2
ENCODING 242
SWIDTH 508 0
DWIDTH 12 0
BBX 0 0 0 0
BITMAP
ENDCHAR
STARTCHAR 00F3
ENCODING 243
SWIDTH 508 0
DWIDTH 12 0
BBX 0 0 0 0
BITMAP
ENDCHAR
STARTCHAR 00F4
ENCODING 244
SWIDTH 508 0
DWIDTH 12 0
BBX 0 0 0 0
BITMAP
ENDCHAR
STARTCHAR 00F5
ENCODING 245
SWIDTH 508 0
DWIDTH 12 0
BBX 0 0 0 0
BITMAP
ENDCHAR
STARTCHAR 00F6
ENCODING 246
SWIDTH 508 0
DWIDTH 12 0
BBX 0 0 0 0
BITMAP
ENDCHAR
STARTCHAR 00F7
ENCODING 247
SWIDTH 508 0
DWIDTH 12 0
BBX 0 0 0 0
BITMAP
ENDCHAR
STARTCHAR 00F8
ENCODING 248
SWIDTH 508 0
DWIDTH 12 0
BBX 0 0 0 0
BITMAP
ENDCHAR
STARTCHAR 00F9
ENCODING 249
SWIDTH 508 0
DWIDTH 12 0
BBX 0 0 0 0
BITMAP
ENDCHAR
STARTCHAR 00FA
ENCODING 250
SWIDTH 508 0
DWIDTH 12 0
BBX 0 0 0 0
BITMAP
ENDCHAR
STARTCHAR 00FB
ENCODING 251
SWIDTH 508 0
DWIDTH 12 0
BBX 0 0 0 0
BITMAP
ENDCHAR
STARTCHAR 00FC
ENCODING 252
SWIDTH 508 0
DWIDTH 12 0
BBX 0 0 0 0
BITMAP
ENDCHAR
STARTCHAR 00FD
ENCODING 253
SWIDTH 423 0
DWIDTH 10 0
BBX 0 0 0 0
BITMAP
ENDCHAR
STARTCHAR 00FE
ENCODING 254
SWIDTH 508 0
DWIDTH 12 0
BBX 0 0 0 0
BITMAP
ENDCHAR
STARTCHAR 00FF
ENCODING 255
SWIDTH 423 0
DWIDTH 10 0
BBX 0 0 0 0
BITMAP
ENDCHAR
STARTCHAR 0131
ENCODING 305
SWIDTH 254 0
DWIDTH 6 0
BBX 0 0 0 0
BITMAP
ENDCHAR
STARTCHAR 02C6
ENCODING 710
SWIDTH 508 0
DWIDTH 12 0
BBX 0 0 0 0
BITMAP
ENDCHAR
STARTCHAR 02C7
ENCODING 711
SWIDTH 508 0
DWIDTH 12 0
BBX 0 0 0 0
BITMAP
ENDCHAR
STARTCHAR 02C9
ENCODING 713
SWIDTH 508 0
DWIDTH 12 0
BBX 0 0 0 0
BITMAP
ENDCHAR
STARTCHAR 02D8
ENCODING 728
SWIDTH 508 0
DWIDTH 12 0
BBX 0 0 0 0
BITMAP
ENDCHAR
STARTCHAR 02D9
ENCODING 729
SWIDTH 508 0
DWIDTH 12 0
BBX 0 0 0 0
BITMAP
ENDCHAR
STARTCHAR 02DA
ENCODING 730
SWIDTH 508 0
DWIDTH 12 0
BBX 0 0 0 0
BITMAP
ENDCHAR
STARTCHAR 02DB
ENCODING 731
SWIDTH 508 0
DWIDTH 12 0
BBX 0 0 0 0
BITMAP
ENDCHAR
STARTCHAR 02DC
ENCODING 732
SWIDTH 508 0
DWIDTH 12 0
BBX 0 0 0 0
BITMAP
ENDCHAR
STARTCHAR 02DD
ENCODING 733
SWIDTH 508 0
DWIDTH 12 0
BBX 0 0 0 0
BITMAP
ENDCHAR
STARTCHAR 037E
ENCODING 894
SWIDTH 974 0
DWIDTH 23 0
BBX 23 23 0 -4
BITMAP
001800
001800
001800
001800
001800
001800
001800
001800
001800
001800
001800
FFFFFE
001800
001800
001800
001800
001800
001800
001800
001800
001800
001800
001800
ENDCHAR
STARTCHAR 2013
ENCODING 8211
SWIDTH 550 0
DWIDTH 13 0
BBX 0 0 0 0
BITMAP
ENDCHAR
STARTCHAR 2014
ENCODING 8212
SWIDTH 1016 0
DWIDTH 24 0
BBX 0 0 0 0
BITMAP
ENDCHAR
STARTCHAR 2018
ENCODING 8216
SWIDTH 296 0
DWIDTH 7 0
BBX 0 0 0 0
BITMAP
ENDCHAR
STARTCHAR 2019
ENCODING 8217
SWIDTH 296 0
DWIDTH 7 0
BBX 0 0 0 0
BITMAP
ENDCHAR
STARTCHAR 201A
ENCODING 8218
SWIDTH 296 0
DWIDTH 7 0
BBX 0 0 0 0
BITMAP
ENDCHAR
STARTCHAR 201C
ENCODING 8220
SWIDTH 465 0
DWIDTH 11 0
BBX 0 0 0 0
BITMAP
ENDCHAR
STARTCHAR 201D
ENCODING 8221
SWIDTH 465 0
DWIDTH 11 0
BBX 0 0 0 0
BITMAP
ENDCHAR
STARTCHAR 201E
ENCODING 8222
SWIDTH 465 0
DWIDTH 11 0
BBX 0 0 0 0
BITMAP
ENDCHAR
STARTCHAR 2020
ENCODING 8224
SWIDTH 508 0
DWIDTH 12 0
BBX 0 0 0 0
BITMAP
ENDCHAR
STARTCHAR 2021
ENCODING 8225
SWIDTH 508 0
DWIDTH 12 0
BBX 0 0 0 0
BITMAP
ENDCHAR
STARTCHAR 2022
ENCODING 8226
SWIDTH 508 0
DWIDTH 12 0
BBX 0 0 0 0
BITMAP
ENDCHAR
STARTCHAR 2026
ENCODING 8230
SWIDTH 1016 0
DWIDTH 24 0
BBX 0 0 0 0
BITMAP
ENDCHAR
STARTCHAR 2039
ENCODING 8249
SWIDTH 296 0
DWIDTH 7 0
BBX 0 0 0 0
BITMAP
ENDCHAR
STARTCHAR 203A
ENCODING 8250
SWIDTH 296 0
DWIDTH 7 0
BBX 0 0 0 0
BITMAP
ENDCHAR
STARTCHAR 2044
ENCODING 8260
SWIDTH 169 0
DWIDTH 4 0
BBX 0 0 0 0
BITMAP
ENDCHAR
STARTCHAR 20A3
ENCODING 8355
SWIDTH 508 0
DWIDTH 12 0
BBX 0 0 0 0
BITMAP
ENDCHAR
STARTCHAR 20A4
ENCODING 8356
SWIDTH 508 0
DWIDTH 12 0
BBX 0 0 0 0
BITMAP
ENDCHAR
STARTCHAR 20A7
ENCODING 8359
SWIDTH 1016 0
DWIDTH 24 0
BBX 0 0 0 0
BITMAP
ENDCHAR
STARTCHAR 20AC
ENCODING 8364
SWIDTH 508 0
DWIDTH 12 0
BBX 0 0 0 0
BITMAP
ENDCHAR
STARTCHAR 2116
ENCODING 8470
SWIDTH 1143 0
DWIDTH 27 0
BBX 0 0 0 0
BITMAP
ENDCHAR
STARTCHAR 2122
ENCODING 8482
SWIDTH 762 0
DWIDTH 18 0
BBX 0 0 0 0
BITMAP
ENDCHAR
STARTCHAR 2202
ENCODING 8706
SWIDTH 508 0
DWIDTH 12 0
BBX 0 0 0 0
BITMAP
ENDCHAR
STARTCHAR 2206
ENCODING 8710
SWIDTH 550 0
DWIDTH 13 0
BBX 0 0 0 0
BITMAP
ENDCHAR
STARTCHAR 220F
ENCODING 8719
SWIDTH 762 0
DWIDTH 18 0
BBX 0 0 0 0
BITMAP
ENDCHAR
STARTCHAR 2211
ENCODING 8721
SWIDTH 592 0
DWIDTH 14 0
BBX 0 0 0 0
BITMAP
ENDCHAR
STARTCHAR 2212
ENCODING 8722
SWIDTH 508 0
DWIDTH 12 0
BBX 0 0 0 0
BITMAP
ENDCHAR
STARTCHAR 2215
ENCODING 8725
SWIDTH 169 0
DWIDTH 4 0
BBX 0 0 0 0
BITMAP
ENDCHAR
STARTCHAR 2219
ENCODING 8729
SWIDTH 254 0
DWIDTH 6 0
BBX 0 0 0 0
BITMAP
ENDCHAR
STARTCHAR 221A
ENCODING 8730
SWIDTH 508 0
DWIDTH 12 0
BBX 0 0 0 0
BITMAP
ENDCHAR
STARTCHAR 221E
ENCODING 8734
SWIDTH 508 0
DWIDTH 12 0
BBX 0 0 0 0
BITMAP
ENDCHAR
STARTCHAR 222B
ENCODING 8747
SWIDTH 338 0
DWIDTH 8 0
BBX 0 0 0 0
BITMAP
ENDCHAR
STARTCHAR 2248
ENCODING 8776
SWIDTH 508 0
DWIDTH 12 0
BBX 0 0 0 0
BITMAP
ENDCHAR
STARTCHAR 2264
ENCODING 8804
SWIDTH 508 0
DWIDTH 12 0
BBX 0 0 0 0
BITMAP
ENDCHAR
STARTCHAR 2265
ENCODING 8805
SWIDTH 508 0
DWIDTH 12 0
BBX 0 0 0 0
BITMAP
ENDCHAR
STARTCHAR F001
ENCODING 61441
SWIDTH 550 0
DWIDTH 13 0
BBX 0 0 0 0
BITMAP
ENDCHAR
STARTCHAR F002
ENCODING 61442
SWIDTH 550 0
DWIDTH 13 0
BBX 0 0 0 0
BITMAP
ENDCHAR
STARTCHAR FB01
ENCODING 64257
SWIDTH 550 0
DWIDTH 13 0
BBX 0 0 0 0
BITMAP
ENDCHAR
STARTCHAR FB02
ENCODING 64258
SWIDTH 550 0
DWIDTH 13 0
BBX 0 0 0 0
BITMAP
ENDCHAR
ENDFONT
